Coordinates
version=1
nRows=24
nColumns=38
inDegrees=no

Units are S.I. units (second, meters, Newtons, ...)
If the header above contains a line with 'inDegrees', this indicates whether rotational values are in degrees (yes) or radians (no).

endheader
time	pelvis_tilt	pelvis_list	pelvis_rotation	pelvis_tx	pelvis_ty	pelvis_tz	hip_flexion_r	hip_adduction_r	hip_rotation_r	knee_angle_r	ankle_angle_r	subtalar_angle_r	mtp_angle_r	hip_flexion_l	hip_adduction_l	hip_rotation_l	knee_angle_l	ankle_angle_l	subtalar_angle_l	mtp_angle_l	lumbar_extension	lumbar_bending	lumbar_rotation	arm_flex_r	arm_add_r	arm_rot_r	elbow_flex_r	pro_sup_r	wrist_flex_r	wrist_dev_r	arm_flex_l	arm_add_l	arm_rot_l	elbow_flex_l	pro_sup_l	wrist_flex_l	wrist_dev_l
4.215	-0.127147	0.060936	-0.0540569	2.02014	1.00014	-0.531702	0.458917	-0.159273	0.0536606	1.26028	-0.0684456	0.00493674	-0.031554	0.338146	0.0859157	-0.122215	0.35926	0.182197	-0.0565667	-0.0226747	-0.0592579	-0.0710001	0.154443	-0.159352	-0.105327	-0.276678	0.837723	1.4227	0.000420814	0.0022927	-0.0650065	-0.0979406	0.0686515	0.63975	1.32625	0.00321411	0.00163884
4.22	-0.125161	0.0586666	-0.0534681	2.02591	1.00133	-0.53202	0.469817	-0.155842	0.0519033	1.25965	-0.057992	0.00413928	-0.031554	0.324922	0.085388	-0.119864	0.35087	0.183737	-0.0544517	-0.0226747	-0.0623655	-0.0677271	0.151642	-0.163475	-0.104013	-0.278901	0.824281	1.41747	0.000420814	0.0022927	-0.0614176	-0.0980071	0.066208	0.648913	1.3235	0.00321411	0.00163884
4.225	-0.123099	0.056333	-0.052883	2.03167	1.0025	-0.532332	0.480235	-0.152493	0.0495544	1.25779	-0.0476452	0.00327074	-0.031554	0.311522	0.0847402	-0.11758	0.342296	0.185136	-0.0522366	-0.0226747	-0.0655631	-0.0643598	0.148943	-0.167751	-0.102829	-0.281058	0.811148	1.41174	0.000420814	0.0022927	-0.0579693	-0.0980271	0.0636087	0.658614	1.32072	0.00321411	0.00163884
4.23	-0.120969	0.0539498	-0.0523034	2.03743	1.00364	-0.532637	0.490183	-0.149245	0.0466328	1.25475	-0.037444	0.00232496	-0.031554	0.297976	0.0839829	-0.115373	0.33357	0.186409	-0.0499211	-0.0226747	-0.068842	-0.0609156	0.146347	-0.172182	-0.101768	-0.283128	0.798348	1.40552	0.000420814	0.0022927	-0.0546569	-0.0980068	0.0608777	0.668848	1.31796	0.00321411	0.00163884
4.235	-0.118783	0.0515309	-0.0517284	2.04318	1.00476	-0.532936	0.499676	-0.146113	0.0431564	1.25055	-0.0274181	0.00129824	-0.031554	0.284317	0.083128	-0.113246	0.324726	0.18757	-0.0475102	-0.0226747	-0.0721895	-0.0574117	0.143853	-0.176763	-0.10082	-0.285094	0.785903	1.39885	0.000420814	0.0022927	-0.0514753	-0.0979522	0.0580402	0.679607	1.31521	0.00321411	0.00163884
4.24	-0.11656	0.0490908	-0.0511545	2.04893	1.00583	-0.533227	0.508735	-0.143115	0.0391419	1.24523	-0.0175897	0.000189566	-0.031554	0.270588	0.0821893	-0.111194	0.315801	0.188632	-0.0450149	-0.0226747	-0.0755876	-0.0538652	0.141454	-0.181492	-0.0999739	-0.286939	0.773832	1.39175	0.000420814	0.0022927	-0.0484186	-0.0978693	0.0551224	0.690879	1.31251	0.00321411	0.00163884
4.245	-0.114321	0.0466441	-0.0505755	2.05466	1.00687	-0.533513	0.517387	-0.140265	0.0346053	1.23882	-0.00797596	-0.00099953	-0.031554	0.256836	0.0811824	-0.109209	0.306827	0.189606	-0.0424485	-0.0226747	-0.0790137	-0.0502932	0.139141	-0.186362	-0.0992198	-0.28865	0.76215	1.38426	0.000420814	0.0022927	-0.0454805	-0.0977639	0.0521483	0.702651	1.30987	0.00321411	0.00163884
4.25	-0.112096	0.0442063	-0.0499827	2.06039	1.00785	-0.533794	0.525664	-0.137579	0.0295624	1.23134	0.00140879	-0.00226505	-0.031554	0.243114	0.0801247	-0.107273	0.297839	0.190504	-0.0398294	-0.0226747	-0.0824398	-0.0467134	0.1369	-0.191367	-0.0985456	-0.290218	0.750869	1.37642	0.000420814	0.0022927	-0.0426548	-0.0976417	0.0491421	0.714903	1.3073	0.00321411	0.00163884
4.255	-0.109914	0.0417935	-0.0493664	2.0661	1.00878	-0.53407	0.533597	-0.135074	0.0240302	1.22281	0.0105516	-0.00360102	-0.031554	0.229478	0.0790354	-0.105365	0.288869	0.191336	-0.0371794	-0.0226747	-0.0858339	-0.0431435	0.134716	-0.196497	-0.0979389	-0.291634	0.739999	1.3683	0.000420814	0.0022927	-0.0399353	-0.0975083	0.046128	0.727615	1.30482	0.00321411	0.00163884
4.26	-0.107808	0.039422	-0.0487163	2.07181	1.00965	-0.534342	0.541218	-0.132761	0.0180279	1.21323	0.019439	-0.00500033	-0.031554	0.215981	0.0779341	-0.103463	0.279943	0.192113	-0.0345183	-0.0226747	-0.0891642	-0.0396016	0.132572	-0.201742	-0.0973874	-0.292894	0.729546	1.35996	0.000420814	0.0022927	-0.037316	-0.0973688	0.0431269	0.740762	1.30244	0.00321411	0.00163884
4.265	-0.105808	0.037108	-0.0480231	2.07749	1.01046	-0.534612	0.548551	-0.130653	0.0115775	1.2026	0.0280553	-0.00645533	-0.031554	0.202672	0.0768401	-0.101542	0.271084	0.192843	-0.0318655	-0.0226747	-0.0923986	-0.0361057	0.130452	-0.207091	-0.0968787	-0.293996	0.719514	1.35147	0.000420814	0.0022927	-0.0347913	-0.0972284	0.0401594	0.754318	1.30017	0.00321411	0.00163884
4.27	-0.103942	0.034867	-0.0472782	2.08317	1.01119	-0.534878	0.555615	-0.128753	0.00470518	1.1909	0.0363809	-0.00795858	-0.031554	0.189596	0.075772	-0.0995788	0.262311	0.193536	-0.0292387	-0.0226747	-0.0955069	-0.0326735	0.128341	-0.212534	-0.0964006	-0.29494	0.709907	1.34289	0.000420814	0.0022927	-0.0323561	-0.0970922	0.0372449	0.768255	1.298	0.00321411	0.00163884
4.275	-0.102234	0.0327133	-0.0464749	2.08883	1.01184	-0.535142	0.562416	-0.127063	-0.00255932	1.17812	0.0443911	-0.00950369	-0.031554	0.176787	0.0747458	-0.0975533	0.253636	0.194203	-0.0266481	-0.0226747	-0.0984628	-0.029322	0.126224	-0.218058	-0.0959412	-0.295724	0.700726	1.33428	0.000420814	0.0022927	-0.0300059	-0.0969647	0.0343995	0.78254	1.29596	0.00321411	0.00163884
4.28	-0.100706	0.0306601	-0.0456079	2.09447	1.01242	-0.535404	0.568955	-0.125577	-0.010182	1.16423	0.0520548	-0.0110855	-0.031554	0.164273	0.0737756	-0.0954494	0.245071	0.19485	-0.0241003	-0.0226747	-0.101242	-0.0260675	0.124091	-0.223653	-0.0954892	-0.296348	0.691971	1.32567	0.000420814	0.0022927	-0.0277368	-0.0968509	0.0316382	0.797142	1.29403	0.00321411	0.00163884
4.285	-0.0993758	0.0287192	-0.0446728	2.1001	1.01292	-0.535661	0.575223	-0.124284	-0.0181252	1.14919	0.0593339	-0.0127003	-0.031554	0.152079	0.072873	-0.093254	0.236621	0.195488	-0.0215992	-0.0226747	-0.103822	-0.0229256	0.121929	-0.229308	-0.095033	-0.296813	0.683642	1.31713	0.000420814	0.0022927	-0.0255459	-0.0967555	0.0289744	0.812027	1.29221	0.00321411	0.00163884
4.29	-0.0982628	0.0269017	-0.0436666	2.10571	1.01334	-0.535915	0.581207	-0.123168	-0.0263474	1.13295	0.0661834	-0.0143457	-0.031554	0.140225	0.0720474	-0.0909589	0.228294	0.196122	-0.0191434	-0.0226747	-0.106179	-0.0199112	0.119731	-0.235016	-0.0945606	-0.297129	0.675738	1.30874	0.000420814	0.0022927	-0.0234311	-0.0966832	0.0264166	0.827158	1.29051	0.00321411	0.00163884
4.295	-0.0973844	0.0252169	-0.0425865	2.11131	1.01367	-0.536162	0.586894	-0.122209	-0.0348047	1.11547	0.072553	-0.0160205	-0.031554	0.128731	0.0713061	-0.0885586	0.220093	0.196759	-0.0167307	-0.0226747	-0.108291	-0.0170382	0.117488	-0.240767	-0.0940596	-0.297305	0.668255	1.30056	0.000420814	0.0022927	-0.021391	-0.0966384	0.0239708	0.8425	1.28894	0.00321411	0.00163884
4.3	-0.0967578	0.0236731	-0.04143	2.11691	1.01392	-0.536403	0.592267	-0.121381	-0.0434503	1.0967	0.0783893	-0.0177239	-0.031554	0.117615	0.0706549	-0.0860494	0.212022	0.197405	-0.014359	-0.0226747	-0.110132	-0.0143198	0.115192	-0.246553	-0.0935179	-0.297354	0.661192	1.29268	0.000420814	0.0022927	-0.0194246	-0.0966255	0.0216416	0.858016	1.28751	0.00321411	0.00163884
4.305	-0.0964	0.0222767	-0.0401952	2.12249	1.01408	-0.536636	0.597311	-0.120657	-0.0522351	1.0766	0.0836393	-0.0194555	-0.031554	0.106895	0.0700977	-0.0834309	0.204085	0.198064	-0.0120239	-0.0226747	-0.111681	-0.0117676	0.112836	-0.25237	-0.0929234	-0.297292	0.654544	1.28519	0.000420814	0.0022927	-0.0175307	-0.0966482	0.0194299	0.873666	1.28624	0.00321411	0.00163884
4.31	-0.0963267	0.021033	-0.0388803	2.12806	1.01416	-0.536858	0.602015	-0.120006	-0.0611072	1.05513	0.0882546	-0.0212149	-0.031554	0.0965854	0.0696373	-0.0807027	0.196285	0.198742	-0.0097234	-0.0226747	-0.112916	-0.00939191	0.110411	-0.258208	-0.0922644	-0.297134	0.648308	1.27817	0.000420814	0.0022927	-0.0157073	-0.0967103	0.0173362	0.889412	1.28514	0.00321411	0.00163884
4.315	-0.0965524	0.0199455	-0.0374836	2.13363	1.01415	-0.53707	0.606373	-0.119397	-0.0700118	1.03227	0.0921966	-0.0230005	-0.031554	0.0867022	0.0692754	-0.0778644	0.188627	0.199441	-0.0074584	-0.0226747	-0.113818	-0.00720144	0.107913	-0.264061	-0.0915303	-0.296896	0.64248	1.27166	0.000420814	0.0022927	-0.0139515	-0.0968147	0.015362	0.905215	1.28422	0.00321411	0.00163884
4.32	-0.0970887	0.0190164	-0.0360042	2.13919	1.01406	-0.537267	0.610383	-0.118795	-0.0788901	1.008	0.0954406	-0.0248103	-0.031554	0.077257	0.0690127	-0.0749175	0.181115	0.200169	-0.0052293	-0.0226747	-0.114372	-0.00520302	0.105333	-0.269921	-0.0907114	-0.296593	0.637052	1.26574	0.000420814	0.0022927	-0.0122588	-0.0969634	0.013506	0.921035	1.28349	0.00321411	0.00163884
4.325	-0.097944	0.0182466	-0.034442	2.14474	1.01388	-0.53745	0.61405	-0.118168	-0.087678	0.982343	0.0979794	-0.0266411	-0.031554	0.0682592	0.0688491	-0.0718632	0.173755	0.200931	-0.00303934	-0.0226747	-0.114569	-0.00340164	0.102668	-0.275778	-0.0897992	-0.296241	0.632019	1.26043	0.000420814	0.0022927	-0.0106228	-0.0971578	0.0117681	0.936832	1.28295	0.00321411	0.00163884
4.33	-0.0991224	0.017636	-0.0327972	2.15029	1.01361	-0.537618	0.617385	-0.117481	-0.0963062	0.955321	0.0998263	-0.0284887	-0.031554	0.0597138	0.068784	-0.0687029	0.166555	0.201733	-0.000893631	-0.0226747	-0.114405	-0.00180054	0.0999134	-0.28162	-0.0887871	-0.295854	0.627373	1.25576	0.000420814	0.0022927	-0.00903531	-0.0973979	0.0101484	0.952567	1.2826	0.00321411	0.00163884
